<svg width="1440.0000000000002" height="720.0000000000001" xmlns="http://www.w3.org/2000/svg">

 <g>
  <title>Layer 1</title>
  <path stroke-width="0" stroke="#FFAC8D" id="svg_1" d="m0,259.70371l40,-21.3c40,-21.7 120,-63.7 200,-53.4c80,10.7 160,74.7 240,80c80,5.7 160,-48.3 240,-64c80,-16.3 160,5.7 240,0c80,-5.3 160,-37.3 240,-26.6c80,10.3 160,64.3 200,90.6l40,26.7l0,32l-40,0c-40,0 -120,0 -200,0c-80,0 -160,0 -240,0c-80,0 -160,0 -240,0c-80,0 -160,0 -240,0c-80,0 -160,0 -240,0c-80,0 -160,0 -200,0l-40,0l0,-64z" fill="#0070f3"/>
  <rect stroke-width="0" x="0" y="320" stroke="#aa56ff" id="svg_3" height="400" width="1440" fill="#0070f3"/>
 </g>
</svg>